# xmcd CD database file
#
# Track frame offsets:
#	150
#	20370
#	37340
#	57750
#	75487
#	90217
#	108220
#	135385
#	159660
#	183942
#	207382
#	227255
#	249590
#
# Disc length: 3645 seconds
#
# Revision: 3
# Processed by: cddbd v1.5.1PL2 Copyright (c) Steve Scherf et al.
# Submitted via: CDex 1.51
#
DISCID=960e3b0d
DTITLE=Patti LaBelle - Classic Moments
DYEAR=2005
DGENRE=R&B
TTITLE0=Ain't No Way Featuring Mary J. Blige
TTITLE1=He's Out Of My Life
TTITLE2=Didn't I (Blow Your Mind This Time)
TTITLE3=Love Don't Live Here Anymore
TTITLE4=I Keep Forgetting
TTITLE5=Love Ballad
TTITLE6=I Can't Make You Love Me
TTITLE7=Your Song Featuring Elton John
TTITLE8=I Write A Song
TTITLE9=Silly
TTITLE10=Stand By You 
TTITLE11=YGMMLSE
TTITLE12=Land Of The Living Featuring Kristine W.
EXTD=YEAR: 2005
EXTT0=
EXTT1=
EXTT2=
EXTT3=
EXTT4=
EXTT5=
EXTT6=
EXTT7=
EXTT8=
EXTT9=
EXTT10=
EXTT11=
EXTT12=
PLAYORDER=
